<svg width="169" height="32" viewBox="0 0 169 32" fill="none" xmlns="http://www.w3.org/2000/svg">
<path fill-rule="evenodd" clip-rule="evenodd" d="M11.2527 0C5.038 0 2.86847e-06 5.03799 2.32517e-06 11.2527C1.94762e-06 15.5714 2.43291 19.3218 6.00292 21.2083C3.07 26.3933 0 31.8553 0 32H22.5054L16.4595 21.2308C20.0529 19.3519 22.5054 15.5887 22.5054 11.2527C22.5054 5.038 17.4674 9.00993e-07 11.2527 0ZM16.4595 21.2308L11.2527 11.9562C11.2527 11.9562 8.68512 16.4664 6.00292 21.2083C7.57023 22.0364 9.35669 22.5054 11.2527 22.5054C13.1314 22.5054 14.9025 22.045 16.4595 21.2308Z" fill="#F0F3F5"/>
<path d="M33.7581 27.2527V4.74728H41.7316C42.9513 4.74728 44.0903 4.87385 45.1489 5.12697C46.2304 5.35709 47.1624 5.7598 47.9448 6.33509C48.7502 6.88737 49.383 7.63525 49.8433 8.57873C50.3035 9.4992 50.5336 10.6383 50.5336 11.996C50.5336 13.3076 50.292 14.4467 49.8087 15.4132C49.3485 16.3797 48.7157 17.1736 47.9103 17.7949C47.1049 18.4162 46.1729 18.8765 45.1144 19.1756C44.0558 19.4748 42.9282 19.6243 41.7316 19.6243H38.8322V27.2527H33.7581ZM38.8322 15.5858H41.421C44.1824 15.5858 45.5631 14.3892 45.5631 11.996C45.5631 10.8224 45.2064 9.99395 44.493 9.5107C43.8027 9.02746 42.7787 8.78583 41.421 8.78583H38.8322V15.5858Z" fill="#F0F3F5"/>
<path d="M53.6288 27.2527V4.74728H61.6024C62.799 4.74728 63.915 4.86234 64.9506 5.09246C66.0091 5.32257 66.9296 5.71377 67.712 6.26605C68.5174 6.79532 69.1502 7.50869 69.6104 8.40614C70.0707 9.3036 70.3008 10.4197 70.3008 11.7543C70.3008 13.4112 69.9326 14.7804 69.1962 15.8619C68.4599 16.9205 67.4934 17.7144 66.2968 18.2436L71.3708 27.2527H65.6754L61.3607 19.1411H58.7029V27.2527H53.6288ZM58.7029 15.1025H61.1882C63.9265 15.1025 65.2958 13.9865 65.2958 11.7543C65.2958 10.6498 64.9506 9.87889 64.2602 9.44167C63.5699 9.00445 62.5458 8.78583 61.1882 8.78583H58.7029V15.1025Z" fill="#F0F3F5"/>
<path d="M74.7501 27.2527V4.74728H89.6617V9.02746H79.8587V13.5493H88.1774V17.7949H79.8587V22.9725H90.0069V27.2527H74.7501Z" fill="#F0F3F5"/>
<path d="M94.2736 27.2527V4.74728H100.628L103.931 15.8274H104.069L107.373 4.74728H113.727V27.2527H109.095C109.095 21.4536 109.164 17.6655 109.164 11.8666L106.179 21.2812H102.018L98.8363 11.8666V27.2527H94.2736Z" fill="#F0F3F5"/>
<path d="M119.297 27.2527V4.74728H124.405V27.2527H119.297Z" fill="#F0F3F5"/>
<path d="M130.251 27.2527V4.74728H137.474L142.544 20.5664V4.74728H147.076V27.2527H140.523L135.118 11.4681V27.2527H130.251Z" fill="#F0F3F5"/>
<path d="M157.141 27.2527V9.02746H150.41V4.74728H168.981V9.02746H162.25V27.2527H157.141Z" fill="#F0F3F5"/>
</svg>
